<?xml version="1.0" encoding="utf-8"?>
<!-- Generator: Adobe Illustrator 25.0.0, SVG Export Plug-In . SVG Version: 6.00 Build 0)  -->
<svg version="1.1"
	 id="svg8" xmlns:cc="http://creativecommons.org/ns#" xmlns:dc="http://purl.org/dc/elements/1.1/" xmlns:inkscape="http://www.inkscape.org/namespaces/inkscape" xmlns:rdf="http://www.w3.org/1999/02/22-rdf-syntax-ns#" xmlns:sodipodi="http://sodipodi.sourceforge.net/DTD/sodipodi-0.dtd" xmlns:svg="http://www.w3.org/2000/svg"
	 xmlns="http://www.w3.org/2000/svg" xmlns:xlink="http://www.w3.org/1999/xlink" x="0px" y="0px" viewBox="0 0 32 60.3"
	 style="enable-background:new 0 0 32 60.3;" xml:space="preserve">
<style type="text/css">
	.st0{fill:#999999;}
	.st1{fill:#FFFFFF;}
</style>
<path class="st0" d="M26.8,0H5.2C2.3,0,0,2.3,0,5.2v50c0,2.8,2.3,5.2,5.2,5.2h21.7c2.9,0,5.2-2.3,5.2-5.2v-50C32,2.3,29.7,0,26.8,0z
	 M13.5,15.3c-0.4,0-0.8,0.4-0.8,0.8v22.7c0,0.4-0.4,0.8-0.8,0.8H8.1c-0.5,0-0.8-0.4-0.8-0.8V16.1c0-0.5-0.4-0.8-0.8-0.8H4.4
	c-0.6,0-1-0.7-0.7-1.2l5.6-10c0.3-0.5,1.1-0.5,1.4,0l5.6,10c0.3,0.5-0.1,1.2-0.7,1.2H13.5z M28.3,46.3l-5.6,10
	c-0.3,0.5-1.1,0.5-1.4,0l-5.6-10c-0.3-0.5,0.1-1.2,0.7-1.2h2.1c0.4,0,0.8-0.4,0.8-0.8V21.6c0-0.4,0.4-0.8,0.8-0.8h3.8
	c0.5,0,0.8,0.4,0.8,0.8v22.7c0,0.5,0.4,0.8,0.8,0.8h2.1C28.2,45,28.6,45.7,28.3,46.3z"/>
<path class="st1" d="M15.6,15.3h-2.1c-0.4,0-0.8,0.4-0.8,0.8v22.7c0,0.4-0.4,0.8-0.8,0.8H8.1c-0.5,0-0.8-0.4-0.8-0.8V16.1
	c0-0.5-0.4-0.8-0.8-0.8H4.4c-0.6,0-1-0.7-0.7-1.2l5.6-10c0.3-0.5,1.1-0.5,1.4,0l5.6,10C16.6,14.6,16.2,15.3,15.6,15.3z"/>
<path class="st1" d="M28.3,46.3l-5.6,10c-0.3,0.5-1.1,0.5-1.4,0l-5.6-10c-0.3-0.5,0.1-1.2,0.7-1.2h2.1c0.4,0,0.8-0.4,0.8-0.8V21.6
	c0-0.4,0.4-0.8,0.8-0.8h3.8c0.5,0,0.8,0.4,0.8,0.8v22.7c0,0.5,0.4,0.8,0.8,0.8h2.1C28.2,45,28.6,45.7,28.3,46.3z"/>
</svg>
