<?xml version="1.0" encoding="utf-8"?>
<!-- Generator: Adobe Illustrator 25.0.0, SVG Export Plug-In . SVG Version: 6.00 Build 0)  -->
<svg version="1.1"
	 id="svg8" xmlns:cc="http://creativecommons.org/ns#" xmlns:dc="http://purl.org/dc/elements/1.1/" xmlns:inkscape="http://www.inkscape.org/namespaces/inkscape" xmlns:rdf="http://www.w3.org/1999/02/22-rdf-syntax-ns#" xmlns:sodipodi="http://sodipodi.sourceforge.net/DTD/sodipodi-0.dtd" xmlns:svg="http://www.w3.org/2000/svg"
	 xmlns="http://www.w3.org/2000/svg" xmlns:xlink="http://www.w3.org/1999/xlink" x="0px" y="0px" viewBox="0 0 32 32"
	 style="enable-background:new 0 0 32 32;" xml:space="preserve">
<style type="text/css">
	.st0{fill:#999999;}
	.st1{fill:#FFFFFF;}
</style>
<sodipodi:namedview  bordercolor="#666666" borderopacity="1.0" gridtolerance="10.0" guidetolerance="10.0" id="base" inkscape:current-layer="layer1-2" inkscape:cx="16.926368" inkscape:cy="11.888232" inkscape:document-units="mm" inkscape:pagecheckerboard="1" inkscape:pageopacity="0.0" inkscape:pageshadow="2" inkscape:snap-global="true" inkscape:window-height="1057" inkscape:window-maximized="1" inkscape:window-width="1920" inkscape:window-x="-8" inkscape:window-y="1072" inkscape:zoom="11.313709" objecttolerance="10.0" pagecolor="#ffffff" showgrid="true" units="px">
	<inkscape:grid  id="grid3713" spacingx="2.1166666" spacingy="2.1166666" type="xygrid"></inkscape:grid>
</sodipodi:namedview>
<g id="layer1" transform="translate(0,-288.53331)" inkscape:groupmode="layer" inkscape:label="Layer 1">
	<g id="layer1-4" transform="matrix(0.06501411,0,0,0.06501418,-0.17028986,277.86107)" inkscape:label="Layer 1">
		<g id="layer1-2" transform="matrix(0.99999999,0,0,0.99999889,3.1924033e-5,1.4288106e-4)" inkscape:label="Layer 1">
			<path class="st0" d="M494.8,240.3v339.9c0,42-34.1,76.1-76.1,76.1H78.8c-42,0-76.1-34.1-76.1-76.1V240.3
				c0-42,34.1-76.1,76.1-76.1h339.9C460.7,164.2,494.8,198.3,494.8,240.3z"/>
		</g>
	</g>
</g>
<g>
	<path class="st1" d="M30.1,15.7c-3.6-4.8-8.7-7.8-14.3-7.8c-1.4,0-2.8,0.2-4.2,0.6c-1.2,0.3-2.3,0.8-3.4,1.4
		c-2.5,1.4-4.8,3.4-6.7,5.9c-0.4,0.5-0.4,1.1,0,1.6c3.6,4.8,8.7,7.8,14.3,7.8c5.6,0,10.7-3,14.3-7.8C30.5,16.8,30.5,16.2,30.1,15.7z
		 M15.9,24.1c-4.2,0-7.6-3.4-7.6-7.6c0-0.9,0.2-1.8,0.5-2.6c0.6,0.5,1.3,0.9,2.2,0.9c1.8,0,3.2-1.4,3.2-3.2c0-0.8-0.3-1.6-0.8-2.2
		C14.1,9.1,15,9,15.9,9c4.2,0,7.6,3.4,7.6,7.6C23.4,20.7,20,24.1,15.9,24.1z"/>
	<path class="st1" d="M19.1,16.5c0,1.8-1.4,3.2-3.2,3.2c-1.8,0-3.2-1.4-3.2-3.2c0-1.8,1.4-3.2,3.2-3.2
		C17.6,13.3,19.1,14.7,19.1,16.5z"/>
</g>
</svg>
