<?xml version="1.0" encoding="utf-8"?>
<!-- Generator: Adobe Illustrator 25.0.0, SVG Export Plug-In . SVG Version: 6.00 Build 0)  -->
<svg version="1.1" xmlns="http://www.w3.org/2000/svg" xmlns:xlink="http://www.w3.org/1999/xlink" x="0px" y="0px"
	 viewBox="0 0 32 32" style="enable-background:new 0 0 32 32;" xml:space="preserve">
<style type="text/css">
	.st0{fill:#999999;}
	.st1{fill:#FFFFFF;}
	.st2{fill:none;stroke:#FFFFFF;stroke-width:2;stroke-miterlimit:10;}
</style>
<g id="svg8" xmlns:cc="http://creativecommons.org/ns#" xmlns:dc="http://purl.org/dc/elements/1.1/" xmlns:inkscape="http://www.inkscape.org/namespaces/inkscape" xmlns:rdf="http://www.w3.org/1999/02/22-rdf-syntax-ns#" xmlns:sodipodi="http://sodipodi.sourceforge.net/DTD/sodipodi-0.dtd" xmlns:svg="http://www.w3.org/2000/svg">
	
		<sodipodi:namedview  bordercolor="#666666" borderopacity="1.0" gridtolerance="10.0" guidetolerance="10.0" id="base" inkscape:current-layer="layer1-2" inkscape:cx="16.926368" inkscape:cy="11.888232" inkscape:document-units="mm" inkscape:pagecheckerboard="1" inkscape:pageopacity="0.0" inkscape:pageshadow="2" inkscape:snap-global="true" inkscape:window-height="1057" inkscape:window-maximized="1" inkscape:window-width="1920" inkscape:window-x="-8" inkscape:window-y="1072" inkscape:zoom="11.313709" objecttolerance="10.0" pagecolor="#ffffff" showgrid="true" units="px">
		<inkscape:grid  id="grid3713" spacingx="2.1166666" spacingy="2.1166666" type="xygrid"></inkscape:grid>
	</sodipodi:namedview>
	<g id="layer1" transform="translate(0,-288.53331)" inkscape:groupmode="layer" inkscape:label="Layer 1">
		<g id="layer1-4" transform="matrix(0.06501411,0,0,0.06501418,-0.17028986,277.86107)" inkscape:label="Layer 1">
			<g id="layer1-2" transform="matrix(0.99999999,0,0,0.99999889,3.1924033e-5,1.4288106e-4)" inkscape:label="Layer 1">
				<path class="st0" d="M494.8,240.3v339.9c0,42-34.1,76.1-76.1,76.1H78.8c-42,0-76.1-34.1-76.1-76.1V240.3
					c0-42,34.1-76.1,76.1-76.1h339.9C460.7,164.2,494.8,198.3,494.8,240.3z"/>
			</g>
		</g>
	</g>
</g>
<g id="Layer_2">
	<g>
		<path class="st1" d="M27.6,27.6H4.4V4.4h23.2V27.6z M6.3,25.7h19.5V6.3H6.3V25.7z"/>
	</g>
	<g>
		<path class="st1" d="M21.9,21.9H10.1V10.1h11.9V21.9z M11.8,20.2h8.4v-8.4h-8.4V20.2z"/>
	</g>
	<g>
		<circle class="st1" cx="26.6" cy="5.4" r="2.6"/>
		<circle class="st1" cx="5.4" cy="5.4" r="2.6"/>
		<circle class="st1" cx="26.6" cy="26.6" r="2.6"/>
		<circle class="st1" cx="5.4" cy="26.6" r="2.6"/>
	</g>
	<circle class="st1" cx="21.2" cy="10.9" r="2.6"/>
	<circle class="st1" cx="11.2" cy="10.9" r="2.6"/>
	<circle class="st1" cx="21.2" cy="20.8" r="2.6"/>
	<circle class="st1" cx="11.2" cy="20.8" r="2.6"/>
	<line class="st2" x1="20.9" y1="10.9" x2="26.6" y2="5.4"/>
	<line class="st2" x1="10.8" y1="10.7" x2="5.1" y2="5.2"/>
	<line class="st2" x1="20.9" y1="21" x2="26.6" y2="26.5"/>
	<line class="st2" x1="10.8" y1="21.2" x2="5.1" y2="26.7"/>
</g>
</svg>
